<svg width="13" height="13" viewBox="0 0 13 13" fill="none" xmlns="http://www.w3.org/2000/svg">
<g clip-path="url(#clip0_2_1172)">
<path d="M3.652 0.0435975C2.98873 0.074891 2.53578 0.18074 2.13981 0.336335C1.73 0.496044 1.38266 0.710361 1.03706 1.05721C0.691459 1.40405 0.478639 1.75165 0.320052 2.16208C0.166576 2.55892 0.0625971 3.01224 0.0332984 3.67589C0.00399972 4.33954 -0.0024834 4.55286 0.00075816 6.2457C0.00399972 7.93854 0.0114802 8.15074 0.0436465 8.81575C0.075314 9.4789 0.180789 9.93172 0.336384 10.3278C0.496343 10.7376 0.71041 11.0848 1.05738 11.4306C1.40435 11.7763 1.7517 11.9886 2.16313 12.1475C2.55959 12.3007 3.01304 12.4052 3.67656 12.4342C4.34008 12.4633 4.55365 12.47 6.24599 12.4667C7.93834 12.4635 8.15141 12.456 8.8163 12.4245C9.48119 12.3929 9.93165 12.2867 10.3279 12.1319C10.7377 11.9715 11.0851 11.7578 11.4306 11.4107C11.7761 11.0637 11.9888 10.7158 12.1473 10.3051C12.3009 9.90866 12.4052 9.45521 12.434 8.79219C12.4631 8.1268 12.4699 7.91435 12.4667 6.22176C12.4634 4.52917 12.4558 4.31697 12.4243 3.6522C12.3927 2.98743 12.2871 2.53598 12.1317 2.13964C11.9715 1.72983 11.7576 1.38286 11.4108 1.03689C11.0639 0.690912 10.7159 0.47834 10.3053 0.320252C9.90858 0.166777 9.45539 0.0621741 8.79186 0.0334988C8.12834 0.00482345 7.91477 -0.0025324 6.22181 0.000709161C4.52884 0.00395072 4.31689 0.0111819 3.652 0.0435975ZM3.72481 11.3128C3.11702 11.2863 2.787 11.1853 2.56707 11.1008C2.27583 10.9886 2.06837 10.8529 1.84919 10.6359C1.63002 10.4188 1.49537 10.2106 1.38166 9.92C1.29626 9.70008 1.1934 9.37043 1.16498 8.76264C1.13406 8.10573 1.12757 7.90849 1.12396 6.2442C1.12034 4.57991 1.1267 4.38292 1.1555 3.72576C1.18143 3.11847 1.28304 2.78808 1.36745 2.56827C1.47966 2.27666 1.6148 2.06957 1.83236 1.85052C2.04992 1.63146 2.25751 1.49656 2.54837 1.38286C2.76805 1.29708 3.09769 1.1951 3.70524 1.16617C4.36265 1.13501 4.55964 1.12877 6.22368 1.12516C7.88772 1.12154 8.0852 1.12777 8.74287 1.1567C9.35016 1.18313 9.68067 1.28374 9.90023 1.36865C10.1916 1.48085 10.3989 1.61563 10.618 1.83356C10.837 2.05149 10.9721 2.25833 11.0858 2.54982C11.1717 2.76888 11.2737 3.09839 11.3023 3.70631C11.3336 4.36372 11.3407 4.56083 11.3437 6.22475C11.3467 7.88867 11.3409 8.08628 11.3121 8.74319C11.2855 9.35099 11.1848 9.68113 11.1001 9.9013C10.9879 10.1924 10.8526 10.4 10.6349 10.6189C10.4173 10.8379 10.2099 10.9728 9.91893 11.0865C9.6995 11.1721 9.36948 11.2744 8.76244 11.3033C8.10503 11.3342 7.90804 11.3407 6.24338 11.3443C4.57871 11.3479 4.38235 11.3412 3.72493 11.3128M8.8067 2.90203C8.80695 3.04999 8.85107 3.19455 8.93348 3.31744C9.01589 3.44032 9.1329 3.53601 9.2697 3.59239C9.40649 3.64877 9.55694 3.66332 9.702 3.6342C9.84707 3.60507 9.98024 3.53358 10.0847 3.42876C10.1891 3.32395 10.2601 3.19051 10.2887 3.04534C10.3173 2.90017 10.3022 2.74978 10.2453 2.61319C10.1884 2.4766 10.0923 2.35995 9.96913 2.27799C9.84594 2.19602 9.70122 2.15243 9.55326 2.15273C9.3549 2.15313 9.16483 2.23229 9.02483 2.3728C8.88483 2.51331 8.80637 2.70368 8.8067 2.90203ZM3.03299 6.23996C3.03648 8.00786 4.47224 9.43776 6.23976 9.43439C8.00728 9.43103 9.43818 7.99539 9.43481 6.22749C9.43145 4.4596 7.99531 3.02932 6.22754 3.03281C4.45977 3.0363 3.02962 4.47231 3.03299 6.23996ZM4.15581 6.23772C4.155 5.82674 4.27608 5.42474 4.50373 5.08257C4.73138 4.7404 5.05539 4.47342 5.43477 4.3154C5.81416 4.15737 6.23188 4.11539 6.63513 4.19477C7.03837 4.27415 7.40902 4.47133 7.7002 4.76136C7.99138 5.05139 8.19002 5.42126 8.271 5.82418C8.35198 6.22711 8.31165 6.645 8.15513 7.02501C7.99861 7.40501 7.73291 7.73007 7.39165 7.95908C7.05038 8.18809 6.64887 8.31075 6.23789 8.31157C5.965 8.31214 5.69467 8.25895 5.44234 8.15503C5.19 8.05112 4.96061 7.89851 4.76727 7.70593C4.57392 7.51335 4.42041 7.28456 4.3155 7.03265C4.21058 6.78073 4.15632 6.51061 4.15581 6.23772Z" fill="#111D15"/>
</g>
<defs>
<clipPath id="clip0_2_1172">
<rect width="12.4675" height="12.4675" fill="white"/>
</clipPath>
</defs>
</svg>
