<svg width="24" height="24" viewBox="0 0 24 24" fill="none" xmlns="http://www.w3.org/2000/svg">
<path fill-rule="evenodd" clip-rule="evenodd" d="M12.8911 9.33688V10.7474C13.1865 10.2974 13.5936 9.93191 14.0727 9.68656C14.5517 9.4412 15.0863 9.32443 15.624 9.34768C18.4957 9.34768 19.1165 11.143 19.1165 13.4786V18.2337H16.4568V14.018C16.4568 13.0123 16.254 11.719 14.6881 11.719C13.1695 11.719 12.9102 12.8137 12.9102 13.9432V18.2337H10.2588V9.33688H12.8911ZM8.47759 7.10103C8.47726 7.36451 8.39916 7.62204 8.25307 7.84131C8.10698 8.06059 7.89942 8.23186 7.65639 8.33366C7.41346 8.43463 7.14599 8.46104 6.888 8.40953C6.63002 8.35802 6.39319 8.23092 6.20766 8.04441C6.02179 7.85778 5.89524 7.62035 5.84394 7.36199C5.79264 7.10363 5.81887 6.83587 5.91934 6.59238C6.01981 6.34889 6.19003 6.14054 6.4086 5.99353C6.62716 5.84652 6.88431 5.76742 7.14772 5.76617C7.32278 5.76617 7.49612 5.80074 7.65779 5.86788C7.81946 5.93502 7.96629 6.03343 8.08984 6.15745C8.2134 6.28146 8.31125 6.42866 8.37779 6.59058C8.44433 6.7525 8.47824 6.92597 8.47759 7.10103Z" fill="#111D15"/>
<path d="M8.4781 9.34781H5.81836V18.2338H8.4781V9.34781Z" fill="#111D15"/>
</svg>
