<svg width="14" height="18" viewBox="0 0 14 18" fill="none" xmlns="http://www.w3.org/2000/svg">
<path d="M6.75 8.55C6.11064 8.55 5.49746 8.31295 5.04537 7.89099C4.59327 7.46903 4.33929 6.89674 4.33929 6.3C4.33929 5.70326 4.59327 5.13097 5.04537 4.70901C5.49746 4.28705 6.11064 4.05 6.75 4.05C7.38936 4.05 8.00254 4.28705 8.45463 4.70901C8.90673 5.13097 9.16071 5.70326 9.16071 6.3C9.16071 6.59547 9.09836 6.88806 8.97721 7.16104C8.85606 7.43402 8.67849 7.68206 8.45463 7.89099C8.23078 8.09992 7.96502 8.26566 7.67254 8.37873C7.38006 8.4918 7.06658 8.55 6.75 8.55ZM6.75 0C4.95979 0 3.2429 0.663748 1.97703 1.84523C0.711159 3.02671 0 4.62914 0 6.3C0 11.025 6.75 18 6.75 18C6.75 18 13.5 11.025 13.5 6.3C13.5 4.62914 12.7888 3.02671 11.523 1.84523C10.2571 0.663748 8.54021 0 6.75 0Z" fill="white"/>
</svg>
