<svg width="22" height="36" viewBox="0 0 22 36" fill="none" xmlns="http://www.w3.org/2000/svg">
<path d="M15.7262 23.1429C15.7177 22.058 15.4455 20.9939 14.9361 20.0538C14.4267 19.1137 13.6974 18.3296 12.8189 17.7776L21.7696 1.28571L19.6773 0L10.5137 16.8763C9.38912 16.6092 8.21946 16.6461 7.11174 16.9837C6.00402 17.3213 4.99359 17.9488 4.17288 18.8087C-0.355099 23.4514 -0.00437338 34.3054 0.0125582 34.7657C0.0250598 35.0977 0.157976 35.4117 0.383441 35.6418C0.608906 35.8719 0.909411 36.0003 1.22195 36H19.352C19.6058 36 19.8532 35.9151 20.0592 35.7573C20.2651 35.5995 20.4191 35.3769 20.4993 35.1209C20.5796 34.8649 20.5821 34.5885 20.5064 34.3309C20.4307 34.0734 20.2807 33.8476 20.0776 33.6857C15.7964 30.2709 15.7262 23.2123 15.7262 23.1429ZM9.59097 19.2819C10.5589 19.2932 11.4855 19.7008 12.178 20.4199C12.8704 21.1391 13.2754 22.1144 13.3087 23.1429C13.3087 23.1917 13.3111 23.4103 13.3292 23.7459L6.19378 20.3721C6.6638 19.9601 7.20618 19.6515 7.7894 19.4644C8.37261 19.2772 8.98501 19.2151 9.59097 19.2819ZM13.848 33.4286C12.8814 32.3821 12.2652 31.0268 12.0944 29.5714H9.67563C9.76225 30.9398 10.1643 32.2645 10.8463 33.4286H8.15784C7.66048 31.76 7.35787 30.0328 7.25684 28.2857H4.83805C4.91604 30.0275 5.18597 31.7536 5.6423 33.4286H2.41926C2.45675 31.068 2.76998 25.8531 4.5998 22.4319L13.7102 26.739C14.1479 29.1553 15.0811 31.4393 16.4434 33.4286H13.848Z" fill="#36B864"/>
</svg>
