<svg width="44" height="36" viewBox="0 0 44 36" fill="none" xmlns="http://www.w3.org/2000/svg">
<path d="M23.6162 32.7418C26.4212 30.8437 28.344 28.8101 29.3846 26.6409C30.4251 24.5168 30.9454 22.4832 30.9454 20.5399C30.9454 18.4611 30.3799 16.6082 29.2488 14.9813C28.0725 13.3995 26.7832 12.0212 25.3807 10.8462C24.7473 10.1683 24.4306 9.4226 24.4306 8.60913C24.4306 7.6601 24.7473 6.68846 25.3807 5.69423C26.014 4.7 26.851 3.77356 27.8916 2.9149C28.9321 2.05625 30.1537 1.35577 31.5562 0.813464C32.9134 0.271155 34.3385 3.01378e-06 35.8315 3.1443e-06C37.2793 3.27086e-06 38.5008 0.361541 39.4961 1.08462C40.4462 1.80769 41.2153 2.68895 41.8034 3.72837C42.3916 4.76779 42.8214 5.85241 43.0928 6.98221C43.3643 8.15721 43.5 9.19664 43.5 10.1005C43.5 12.7216 43.025 15.2298 42.0749 17.625C41.1248 20.0654 39.8354 22.3476 38.2067 24.4716C36.578 26.5957 34.6778 28.5389 32.5062 30.3014C30.3346 32.1091 28.0499 33.7135 25.6521 35.1144L23.6162 32.7418ZM-3.60728e-06 32.8774C2.75975 30.9793 4.68252 28.9457 5.76833 26.7764C6.80889 24.6524 7.32917 22.6187 7.32917 20.6755C7.32917 18.5966 6.76365 16.7437 5.6326 15.1168C4.45632 13.5351 3.16693 12.1567 1.76443 10.9817C1.13104 10.3038 0.814349 9.55817 0.814349 8.74471C0.814349 7.79567 1.13104 6.82404 1.76443 5.82981C2.39781 4.83558 3.23479 3.90913 4.27535 3.05048C5.31591 2.19183 6.53744 1.49135 7.93994 0.94904C9.29719 0.406731 10.7223 0.135575 12.2153 0.135575C13.663 0.135576 14.8619 0.497117 15.812 1.22019C16.7621 1.94327 17.5538 2.82452 18.1872 3.86394C18.7754 4.90337 19.2051 5.98798 19.4766 7.11779C19.7028 8.29279 19.8159 9.33221 19.8159 10.2361C19.8159 12.8572 19.3409 15.3654 18.3908 17.7606C17.4407 20.201 16.1513 22.4832 14.5226 24.6072C12.8939 26.7312 11.0164 28.6745 8.89001 30.437C6.7184 32.2447 4.43369 33.849 2.03588 35.25L-3.60728e-06 32.8774Z" fill="#ECEAEA"/>
</svg>
