<svg width="18" height="18" viewBox="0 0 18 18" fill="none" xmlns="http://www.w3.org/2000/svg">
<path fill-rule="evenodd" clip-rule="evenodd" d="M10.6973 0.0340148C10.5105 0.102363 10.3544 0.235335 10.2572 0.408848C10.2022 0.510511 10.1704 0.623095 10.1641 0.738513C10.1578 0.85393 10.1771 0.969316 10.2207 1.07638C10.2642 1.18344 10.331 1.27952 10.4161 1.35772C10.5012 1.43591 10.6026 1.49428 10.713 1.52863C10.7735 1.54671 10.9008 1.57107 10.9959 1.58207C11.5727 1.64886 12.3286 1.88068 12.929 2.17536C14.197 2.78881 15.2167 3.81794 15.8184 5.09152C16.11 5.69974 16.2789 6.24745 16.3858 6.93818C16.4416 7.29809 16.5013 7.44189 16.6585 7.59277C16.8031 7.73107 16.9634 7.79079 17.1881 7.79079C17.4129 7.79079 17.5732 7.73107 17.7178 7.59277C17.9551 7.36488 18.0054 7.13935 17.9276 6.64115C17.6777 4.98029 16.9012 3.44353 15.7124 2.25708C14.5242 1.06893 13.0257 0.310622 11.3417 0.0434446C10.999 -0.0115624 10.8309 -0.0139198 10.6973 0.0340148ZM1.86473 0.832403C1.40251 0.932437 0.980547 1.16785 0.652639 1.50864C0.324732 1.84942 0.105735 2.28013 0.023568 2.74586C-0.0943042 3.42323 0.242025 5.28247 0.76302 6.8321C1.82073 9.98007 3.83163 12.7839 6.43346 14.7374C7.79293 15.7579 9.29668 16.5704 10.8953 17.1483C12.3004 17.6481 14.1792 18.0386 14.9721 17.997C15.8318 17.9514 16.5705 17.4563 16.9516 16.6705C17.1732 16.2124 17.1724 16.2202 17.1724 14.4545C17.1724 12.6715 17.1748 12.6958 16.9343 12.2047C16.7986 11.9288 16.6098 11.6825 16.3787 11.4798C16.1475 11.2771 15.8786 11.1221 15.5874 11.0236C15.3751 10.9654 15.1597 10.919 14.9423 10.8845C14.3293 10.7816 13.9623 10.6889 13.3062 10.472C12.8009 10.3046 12.7514 10.2944 12.3891 10.281C11.9342 10.2638 11.6552 10.3148 11.3134 10.4791C10.9755 10.6409 10.8277 10.7517 10.4254 11.147L10.0584 11.5069L9.73388 11.2853C8.52608 10.4499 7.4813 9.4006 6.65113 8.1892L6.4641 7.91102L6.82244 7.54483C7.22006 7.13699 7.334 6.98533 7.49274 6.64979C7.65147 6.31582 7.70412 6.02821 7.68762 5.57479C7.67505 5.21803 7.66483 5.16853 7.49745 4.66325C7.28057 4.00709 7.18784 3.64012 7.0849 3.02718C7.05043 2.80974 7.004 2.59436 6.94581 2.38203C6.84747 2.09074 6.69249 1.82178 6.48979 1.59063C6.28709 1.35947 6.04068 1.17069 5.76473 1.03514C5.28303 0.799398 5.31367 0.802542 3.60924 0.793112C2.33779 0.786039 2.04861 0.792326 1.86473 0.832403ZM5.07086 2.43625C5.36082 2.59341 5.44412 2.75372 5.54549 3.35251C5.64371 3.93558 5.80166 4.56502 5.9824 5.09938C6.13878 5.55829 6.16078 5.77675 6.07356 5.98735C6.04055 6.06671 5.80638 6.32761 5.40011 6.73859C4.80761 7.33895 4.77539 7.37745 4.72353 7.55583C4.62608 7.88902 4.71803 8.12005 5.2846 8.96951C6.24769 10.414 7.48295 11.657 8.92135 12.6291C9.84704 13.253 10.0718 13.3457 10.4136 13.2459C10.592 13.1941 10.6305 13.1626 11.2332 12.5662C11.6206 12.1827 11.9098 11.9226 11.9797 11.8935C12.1841 11.8079 12.4143 11.8322 12.8701 11.987C13.4036 12.1678 14.0339 12.3257 14.6161 12.424C15.2165 12.5253 15.3815 12.6133 15.5418 12.9143C15.5961 13.0157 15.6016 13.128 15.6102 14.3838C15.6157 15.2765 15.6078 15.7857 15.5858 15.8674C15.5033 16.1723 15.1662 16.4348 14.8574 16.4348C14.6617 16.4348 14.103 16.357 13.5891 16.2579C9.7496 15.5177 6.26608 13.2365 4.11373 10.0539C3.07803 8.52081 2.39987 7.04584 1.96139 5.36891C1.76258 4.60746 1.56769 3.49867 1.56691 3.12069C1.56612 2.92031 1.69264 2.66021 1.85294 2.53291C2.07769 2.35453 2.08869 2.35374 3.57781 2.3616C4.91212 2.36867 4.94827 2.37024 5.07086 2.43625ZM10.6973 3.17727C10.5413 3.23005 10.406 3.33071 10.3106 3.46489C10.2153 3.59908 10.1647 3.75995 10.1661 3.92458C10.1661 4.09118 10.1826 4.16033 10.2572 4.29706C10.3775 4.51787 10.548 4.63182 10.8772 4.71354C12.0764 5.01058 12.9337 5.85769 13.2441 7.05055C13.3416 7.42775 13.4461 7.58805 13.6724 7.71221C13.7774 7.76927 13.894 7.80152 14.0134 7.80647C14.1328 7.81141 14.2517 7.78893 14.3611 7.74075C14.4704 7.69256 14.5673 7.61996 14.6442 7.52851C14.7211 7.43706 14.776 7.3292 14.8047 7.21322C14.9077 6.82896 14.5572 5.83018 14.0653 5.10331C13.817 4.73633 13.2331 4.15247 12.8661 3.90415C12.0929 3.3808 11.0792 3.04133 10.6973 3.17727Z" fill="white"/>
</svg>
